<svg width="122" height="122" viewBox="0 0 122 122" fill="none" xmlns="http://www.w3.org/2000/svg">
<path d="M14.8067 99.3601C28.7965 91.4537 44.5974 87.31 60.6667 87.3334C77.3334 87.3334 92.9801 91.7001 106.527 99.3601M80.6667 47.3334C80.6667 52.6377 78.5596 57.7248 74.8089 61.4756C71.0582 65.2263 65.9711 67.3334 60.6667 67.3334C55.3624 67.3334 50.2753 65.2263 46.5246 61.4756C42.7739 57.7248 40.6667 52.6377 40.6667 47.3334C40.6667 42.0291 42.7739 36.942 46.5246 33.1913C50.2753 29.4405 55.3624 27.3334 60.6667 27.3334C65.9711 27.3334 71.0582 29.4405 74.8089 33.1913C78.5596 36.942 80.6667 42.0291 80.6667 47.3334ZM120.667 60.6667C120.667 68.5461 119.115 76.3482 116.1 83.6278C113.084 90.9073 108.665 97.5216 103.093 103.093C97.5216 108.665 90.9073 113.084 83.6278 116.1C76.3482 119.115 68.5461 120.667 60.6667 120.667C52.7874 120.667 44.9853 119.115 37.7057 116.1C30.4262 113.084 23.8119 108.665 18.2403 103.093C12.6688 97.5216 8.24926 90.9073 5.23398 83.6278C2.21869 76.3482 0.666748 68.5461 0.666748 60.6667C0.666748 44.7538 6.98816 29.4925 18.2403 18.2403C29.4925 6.98816 44.7538 0.666748 60.6667 0.666748C76.5797 0.666748 91.841 6.98816 103.093 18.2403C114.345 29.4925 120.667 44.7538 120.667 60.6667Z" stroke="white" stroke-width="1.33333" stroke-linecap="round" stroke-linejoin="round"/>
</svg>
