<svg width="16" height="16" viewBox="0 0 18 18" fill="none" xmlns="http://www.w3.org/2000/svg">
  <path
    d="M12.1487 16.6001V13.4001C12.2723 12.3979 11.9532 11.3922 11.2603 10.6001C13.9253 10.6001 16.5904 9.0001 16.5904 6.2001C16.6614 5.2001 16.3505 4.2161 15.702 3.4001C15.9508 2.4801 15.9508 1.5201 15.702 0.600098C15.702 0.600098 14.8137 0.600098 13.037 1.8001C10.6918 1.4001 8.27553 1.4001 5.93033 1.8001C4.15365 0.600098 3.26532 0.600098 3.26532 0.600098C2.99882 1.5201 2.99882 2.4801 3.26532 3.4001C2.6183 4.21272 2.30434 5.20231 2.37698 6.2001C2.37698 9.0001 5.04199 10.6001 7.707 10.6001C7.36055 10.9921 7.10293 11.4401 6.95191 11.9201C6.80089 12.4001 6.75648 12.9041 6.81866 13.4001V16.6001"
    stroke="#D2CFCF" stroke-width="1.2" stroke-linecap="round" stroke-linejoin="round" />
  <path d="M6.81845 13.4003C2.81205 15.0003 2.37677 11.8003 0.600098 11.8003" stroke="#D2CFCF" stroke-width="1.2"
    stroke-linecap="round" stroke-linejoin="round" />
</svg>