<svg width="18" height="20" viewBox="0 0 18 16" fill="none" xmlns="http://www.w3.org/2000/svg">
  <path
    d="M1.83809 1.86777C1.46665 2.24854 1.17201 2.70057 0.970989 3.19807C0.769968 3.69557 0.666504 4.22878 0.666504 4.76727C0.666504 5.30576 0.769968 5.83897 0.970989 6.33647C1.17201 6.83396 1.46665 7.286 1.83809 7.66677L8.66651 14.6667L15.4949 7.66677C16.2451 6.89777 16.6665 5.85479 16.6665 4.76727C16.6665 3.67975 16.2451 2.63676 15.4949 1.86777C14.7448 1.09878 13.7274 0.666758 12.6665 0.666758C11.6056 0.666758 10.5882 1.09878 9.83806 1.86777L8.66651 3.06876L7.49496 1.86777C7.12352 1.487 6.68257 1.18496 6.19726 0.978884C5.71196 0.772812 5.19181 0.666748 4.66652 0.666748C4.14123 0.666748 3.62109 0.772812 3.13578 0.978884C2.65048 1.18496 2.20952 1.487 1.83809 1.86777Z"
    stroke="red" stroke-width="1.33333" stroke-linecap="round" stroke-linejoin="round" />
</svg>