<svg width="16" height="16" viewBox="0 0 18 18" fill="none" xmlns="http://www.w3.org/2000/svg">
  <path
    d="M12.6001 0.600098H4.6001C2.39096 0.600098 0.600098 2.39096 0.600098 4.6001V12.6001C0.600098 14.8092 2.39096 16.6001 4.6001 16.6001H12.6001C14.8092 16.6001 16.6001 14.8092 16.6001 12.6001V4.6001C16.6001 2.39096 14.8092 0.600098 12.6001 0.600098Z"
    stroke="#D2CFCF" stroke-width="1.2" stroke-linecap="round" stroke-linejoin="round" />
  <path
    d="M13 4.19971H13.008M11.8 8.09571C11.8987 8.7615 11.785 9.44148 11.475 10.0389C11.165 10.6364 10.6745 11.1208 10.0733 11.4234C9.47205 11.7261 8.79072 11.8314 8.12619 11.7245C7.46166 11.6175 6.84777 11.3038 6.37183 10.8278C5.89589 10.3519 5.58215 9.73801 5.47521 9.07348C5.36828 8.40895 5.47361 7.72762 5.77622 7.12641C6.07883 6.52519 6.56331 6.0347 7.16075 5.7247C7.75819 5.4147 8.43816 5.30098 9.10396 5.39971C9.7831 5.50041 10.4118 5.81688 10.8973 6.30235C11.3828 6.78783 11.6993 7.41657 11.8 8.09571Z"
    stroke="#D2CFCF" stroke-width="1.2" stroke-linecap="round" stroke-linejoin="round" />
</svg>