<svg width="96" height="35" viewBox="0 0 96 35" fill="none" xmlns="http://www.w3.org/2000/svg">
  <path
    d="M16.85 2.078C17.3713 2.078 17.7567 2.10067 18.006 2.146C18.278 2.16867 18.5727 2.27067 18.89 2.452C19.23 2.63333 19.468 2.93933 19.604 3.37C19.74 3.80066 19.808 4.37866 19.808 5.104C19.808 5.82933 19.74 6.40733 19.604 6.838C19.468 7.26867 19.23 7.57467 18.89 7.756C18.55 7.91467 18.244 8.01667 17.972 8.062C17.7227 8.08466 17.326 8.096 16.782 8.096H6.378V11.53H13.076C13.62 11.53 14.0167 11.5527 14.266 11.598C14.538 11.6207 14.844 11.7227 15.184 11.904C15.7733 12.244 16.068 13.1393 16.068 14.59C16.068 16.1767 15.6373 17.1173 14.776 17.412C14.4133 17.5253 13.8353 17.582 13.042 17.582H6.378V24.008C6.378 24.552 6.35533 24.9487 6.31 25.198C6.28733 25.4473 6.18533 25.742 6.004 26.082C5.68667 26.694 4.80267 27 3.352 27C1.76533 27 0.836 26.5693 0.564 25.708C0.428 25.3453 0.36 24.7673 0.36 23.974V5.07C0.36 3.914 0.575333 3.132 1.006 2.724C1.43667 2.29333 2.25267 2.078 3.454 2.078H16.85ZM21.3444 12.074C21.3444 11.5527 21.3557 11.1673 21.3784 10.918C21.4237 10.646 21.5257 10.34 21.6844 10C22.0017 9.41067 22.8857 9.116 24.3364 9.116C25.4244 9.116 26.195 9.30867 26.6484 9.694C27.0337 10.0113 27.2377 10.4987 27.2604 11.156C27.283 11.3827 27.2944 11.7113 27.2944 12.142V24.042C27.2944 24.5633 27.2717 24.96 27.2264 25.232C27.2037 25.4813 27.1017 25.776 26.9204 26.116C26.6257 26.7053 25.753 27 24.3024 27C22.8744 27 22.0017 26.694 21.6844 26.082C21.5257 25.742 21.4237 25.4473 21.3784 25.198C21.3557 24.9487 21.3444 24.552 21.3444 24.008V12.074ZM26.9204 5.784C26.7617 6.10133 26.467 6.328 26.0364 6.464C25.6057 6.6 25.0277 6.668 24.3024 6.668C23.5997 6.668 23.033 6.6 22.6024 6.464C22.1717 6.328 21.8657 6.09 21.6844 5.75C21.5257 5.41 21.4237 5.11533 21.3784 4.866C21.3557 4.594 21.3444 4.19733 21.3444 3.676C21.3444 3.15466 21.3557 2.76933 21.3784 2.52C21.4237 2.248 21.5257 1.95333 21.6844 1.636C22.0017 1.024 22.8857 0.717998 24.3364 0.717998C25.7644 0.717998 26.6257 1.024 26.9204 1.636C27.1017 1.976 27.2037 2.282 27.2264 2.554C27.2717 2.80333 27.2944 3.18867 27.2944 3.71C27.2944 4.23133 27.2717 4.628 27.2264 4.9C27.2037 5.14933 27.1017 5.444 26.9204 5.784ZM30.0104 3.642C30.0104 3.12067 30.0217 2.73533 30.0444 2.486C30.0897 2.214 30.1917 1.908 30.3504 1.568C30.6677 0.955999 31.5517 0.649999 33.0024 0.649999C34.3851 0.649999 35.2464 0.955999 35.5864 1.568C35.7677 1.908 35.8697 2.214 35.8924 2.486C35.9377 2.758 35.9604 3.15466 35.9604 3.676V19.418C35.9604 20.234 36.0284 20.7553 36.1644 20.982C36.3004 21.186 36.5951 21.288 37.0484 21.288C37.5244 21.288 37.8417 21.3107 38.0004 21.356C38.1591 21.3787 38.3517 21.4693 38.5784 21.628C39.0317 21.9227 39.2584 22.7273 39.2584 24.042C39.2584 25.47 39.0317 26.3427 38.5784 26.66C37.9891 27.068 36.5837 27.136 34.3624 26.864C32.6171 26.6373 31.4837 26.0593 30.9624 25.13C30.3277 24.0193 30.0104 22.2513 30.0104 19.826V3.642ZM46.9814 11.462C48.0468 9.85267 49.3274 9.048 50.8234 9.048C53.1354 9.048 54.8581 10.034 55.9914 12.006C56.2408 11.666 56.5354 11.3147 56.8754 10.952C57.2381 10.5667 57.8048 10.1587 58.5754 9.728C59.3461 9.27467 60.1394 9.048 60.9554 9.048C62.7688 9.048 64.2874 9.75067 65.5114 11.156C66.7354 12.5387 67.3474 14.8393 67.3474 18.058V24.008C67.3474 24.5293 67.3248 24.926 67.2794 25.198C67.2568 25.4473 67.1548 25.742 66.9734 26.082C66.6788 26.694 65.8061 27 64.3554 27C62.9274 27 62.0548 26.6827 61.7374 26.048C61.5788 25.708 61.4768 25.4133 61.4314 25.164C61.4088 24.892 61.3974 24.4953 61.3974 23.974V18.024C61.3974 16.052 60.6948 15.066 59.2894 15.066C58.4961 15.066 57.9521 15.3267 57.6574 15.848C57.3854 16.3693 57.2494 17.106 57.2494 18.058V24.008C57.2494 24.552 57.2268 24.9487 57.1814 25.198C57.1588 25.4473 57.0568 25.742 56.8754 26.082C56.5581 26.694 55.6741 27 54.2234 27C52.7954 27 51.9228 26.6827 51.6054 26.048C51.4468 25.708 51.3448 25.4133 51.2994 25.164C51.2768 24.892 51.2654 24.4953 51.2654 23.974V18.024C51.2654 16.052 50.5628 15.066 49.1574 15.066C47.7974 15.066 47.1174 16.052 47.1174 18.024V24.042C47.1174 24.5633 47.0948 24.96 47.0494 25.232C47.0268 25.4813 46.9248 25.776 46.7434 26.116C46.4034 26.7053 45.5194 27 44.0914 27C42.6634 27 41.7908 26.694 41.4734 26.082C41.3148 25.742 41.2128 25.4473 41.1674 25.198C41.1448 24.9487 41.1334 24.552 41.1334 24.008V12.04C41.1334 11.5187 41.1448 11.1333 41.1674 10.884C41.2128 10.612 41.3261 10.3173 41.5074 10C41.8474 9.388 42.6521 9.082 43.9214 9.082C45.1908 9.082 46.0181 9.286 46.4034 9.694C46.7888 10.102 46.9814 10.6913 46.9814 11.462ZM70.0534 12.074C70.0534 11.5527 70.0647 11.1673 70.0874 10.918C70.1327 10.646 70.2347 10.34 70.3934 10C70.7107 9.41067 71.5947 9.116 73.0454 9.116C74.1334 9.116 74.904 9.30867 75.3574 9.694C75.7427 10.0113 75.9467 10.4987 75.9694 11.156C75.992 11.3827 76.0034 11.7113 76.0034 12.142V24.042C76.0034 24.5633 75.9807 24.96 75.9354 25.232C75.9127 25.4813 75.8107 25.776 75.6294 26.116C75.3347 26.7053 74.462 27 73.0114 27C71.5834 27 70.7107 26.694 70.3934 26.082C70.2347 25.742 70.1327 25.4473 70.0874 25.198C70.0647 24.9487 70.0534 24.552 70.0534 24.008V12.074ZM75.6294 5.784C75.4707 6.10133 75.176 6.328 74.7454 6.464C74.3147 6.6 73.7367 6.668 73.0114 6.668C72.3087 6.668 71.742 6.6 71.3114 6.464C70.8807 6.328 70.5747 6.09 70.3934 5.75C70.2347 5.41 70.1327 5.11533 70.0874 4.866C70.0647 4.594 70.0534 4.19733 70.0534 3.676C70.0534 3.15466 70.0647 2.76933 70.0874 2.52C70.1327 2.248 70.2347 1.95333 70.3934 1.636C70.7107 1.024 71.5947 0.717998 73.0454 0.717998C74.4734 0.717998 75.3347 1.024 75.6294 1.636C75.8107 1.976 75.9127 2.282 75.9354 2.554C75.9807 2.80333 76.0034 3.18867 76.0034 3.71C76.0034 4.23133 75.9807 4.628 75.9354 4.9C75.9127 5.14933 75.8107 5.444 75.6294 5.784ZM90.0074 10.884C90.1434 9.68267 91.0274 9.082 92.6594 9.082C93.5207 9.082 94.1554 9.15 94.5634 9.286C94.9714 9.422 95.2547 9.66 95.4134 10C95.5947 10.3173 95.6967 10.6007 95.7194 10.85C95.7647 11.0993 95.7874 11.4847 95.7874 12.006V31.862C95.7874 32.3833 95.7647 32.7687 95.7194 33.018C95.6967 33.2673 95.5947 33.5507 95.4134 33.868C95.2547 34.1853 94.96 34.412 94.5294 34.548C94.1214 34.684 93.566 34.752 92.8634 34.752C92.1607 34.752 91.6054 34.684 91.1974 34.548C90.7894 34.412 90.4947 34.174 90.3134 33.834C90.1547 33.5167 90.0527 33.2333 90.0074 32.984C89.9847 32.7347 89.9734 32.3493 89.9734 31.828V24.96C89.0667 26.0027 87.786 26.524 86.1314 26.524C84.114 26.524 82.2894 25.6513 80.6574 23.906C79.0254 22.1607 78.2094 20.132 78.2094 17.82C78.2094 15.508 79.0367 13.4793 80.6914 11.734C82.346 9.98867 84.0914 9.116 85.9274 9.116C87.786 9.116 89.146 9.70533 90.0074 10.884ZM84.8734 19.86C85.4627 20.4493 86.1654 20.744 86.9814 20.744C87.7974 20.744 88.4774 20.4493 89.0214 19.86C89.5654 19.248 89.8374 18.5907 89.8374 17.888C89.8374 17.1627 89.5767 16.494 89.0554 15.882C88.534 15.2473 87.8314 14.93 86.9474 14.93C86.086 14.93 85.3834 15.236 84.8394 15.848C84.2954 16.4373 84.0234 17.106 84.0234 17.854C84.0234 18.602 84.3067 19.2707 84.8734 19.86Z"
    fill="white" />
</svg>