<svg width="18" height="18" viewBox="0 0 16 16" fill="none" xmlns="http://www.w3.org/2000/svg">
  <path
    d="M7.6665 4.55564V7.66675L9.99984 10.0001M14.6665 7.66675C14.6665 8.586 14.4854 9.49625 14.1337 10.3455C13.7819 11.1948 13.2663 11.9665 12.6163 12.6165C11.9662 13.2665 11.1946 13.7821 10.3453 14.1339C9.49601 14.4857 8.58576 14.6667 7.6665 14.6667C6.74725 14.6667 5.837 14.4857 4.98772 14.1339C4.13844 13.7821 3.36677 13.2665 2.71676 12.6165C2.06675 11.9665 1.55113 11.1948 1.19935 10.3455C0.847564 9.49625 0.666504 8.586 0.666504 7.66675C0.666504 5.81023 1.404 4.02976 2.71676 2.717C4.02951 1.40425 5.80999 0.666748 7.6665 0.666748C9.52302 0.666748 11.3035 1.40425 12.6163 2.717C13.929 4.02976 14.6665 5.81023 14.6665 7.66675Z"
    stroke="#5294e2" stroke-width="1.33333" stroke-linecap="round" stroke-linejoin="round" />
</svg>