<svg width="20" height="23" viewBox="0 0 20 23" fill="none" xmlns="http://www.w3.org/2000/svg">
<path d="M2.7875 17.7519C4.88597 16.3832 7.2561 15.6659 9.6665 15.6699C12.1665 15.6699 14.5135 16.4259 16.5455 17.7519M12.6665 8.74539C12.6665 9.66364 12.3504 10.5443 11.7878 11.1936C11.2252 11.8429 10.4622 12.2077 9.6665 12.2077C8.87085 12.2077 8.10779 11.8429 7.54518 11.1936C6.98257 10.5443 6.6665 9.66364 6.6665 8.74539C6.6665 7.82714 6.98257 6.94649 7.54518 6.29719C8.10779 5.64789 8.87085 5.28311 9.6665 5.28311C10.4622 5.28311 11.2252 5.64789 11.7878 6.29719C12.3504 6.94649 12.6665 7.82714 12.6665 8.74539ZM18.6665 11.0536C18.6665 12.4176 18.4337 13.7683 17.9814 15.0284C17.5291 16.2886 16.8662 17.4337 16.0305 18.3982C15.1947 19.3627 14.2026 20.1278 13.1107 20.6497C12.0187 21.1717 10.8484 21.4404 9.6665 21.4404C8.48461 21.4404 7.31428 21.1717 6.22235 20.6497C5.13042 20.1278 4.13827 19.3627 3.30254 18.3982C2.46682 17.4337 1.80388 16.2886 1.35159 15.0284C0.899296 13.7683 0.666504 12.4176 0.666504 11.0536C0.666504 8.29882 1.61472 5.65689 3.30254 3.70898C4.99037 1.76107 7.27956 0.666748 9.6665 0.666748C12.0535 0.666748 14.3426 1.76107 16.0305 3.70898C17.7183 5.65689 18.6665 8.29882 18.6665 11.0536Z" fill="#1C1A23"/>
<path d="M2.7875 17.7519C4.88597 16.3832 7.2561 15.6659 9.6665 15.6699C12.1665 15.6699 14.5135 16.4259 16.5455 17.7519M12.6665 8.74539C12.6665 9.66364 12.3504 10.5443 11.7878 11.1936C11.2252 11.8429 10.4622 12.2077 9.6665 12.2077C8.87085 12.2077 8.10779 11.8429 7.54518 11.1936C6.98257 10.5443 6.6665 9.66364 6.6665 8.74539C6.6665 7.82714 6.98257 6.94649 7.54518 6.29719C8.10779 5.64789 8.87085 5.28311 9.6665 5.28311C10.4622 5.28311 11.2252 5.64789 11.7878 6.29719C12.3504 6.94649 12.6665 7.82714 12.6665 8.74539ZM18.6665 11.0536C18.6665 12.4176 18.4337 13.7683 17.9814 15.0284C17.5291 16.2886 16.8662 17.4337 16.0305 18.3982C15.1947 19.3627 14.2026 20.1278 13.1107 20.6497C12.0187 21.1717 10.8484 21.4404 9.6665 21.4404C8.48461 21.4404 7.31428 21.1717 6.22235 20.6497C5.13042 20.1278 4.13827 19.3627 3.30254 18.3982C2.46682 17.4337 1.80388 16.2886 1.35159 15.0284C0.899296 13.7683 0.666504 12.4176 0.666504 11.0536C0.666504 8.29882 1.61472 5.65689 3.30254 3.70898C4.99037 1.76107 7.27956 0.666748 9.6665 0.666748C12.0535 0.666748 14.3426 1.76107 16.0305 3.70898C17.7183 5.65689 18.6665 8.29882 18.6665 11.0536Z" stroke="white" stroke-width="1.33333" stroke-linecap="round" stroke-linejoin="round"/>
</svg>
