<svg width="52" height="52" viewBox="0 0 52 52" fill="none" xmlns="http://www.w3.org/2000/svg">
  <path
    d="M17.3332 22.8887L25.6665 14.5554L17.3332 22.8887ZM25.6665 14.5554L33.9998 22.8887L25.6665 14.5554ZM25.6665 14.5554V36.7776V14.5554ZM25.6665 0.666504C28.9495 0.666504 32.2004 1.31315 35.2336 2.56952C38.2667 3.82588 41.0227 5.66737 43.3442 7.98883C45.6656 10.3103 47.5071 13.0663 48.7635 16.0994C50.0199 19.1326 50.6665 22.3835 50.6665 25.6665C50.6665 28.9495 50.0199 32.2004 48.7635 35.2336C47.5071 38.2667 45.6656 41.0227 43.3442 43.3442C41.0227 45.6656 38.2667 47.5071 35.2336 48.7635C32.2004 50.0199 28.9495 50.6665 25.6665 50.6665C19.0361 50.6665 12.6772 48.0326 7.98883 43.3442C3.30043 38.6558 0.666504 32.2969 0.666504 25.6665C0.666504 19.0361 3.30043 12.6772 7.98883 7.98883C12.6772 3.30042 19.0361 0.666504 25.6665 0.666504Z"
    fill="white" />
  <path
    d="M17.3332 22.8887L25.6665 14.5554M25.6665 14.5554L33.9998 22.8887M25.6665 14.5554V36.7776M25.6665 0.666504C28.9495 0.666504 32.2004 1.31315 35.2336 2.56952C38.2667 3.82588 41.0227 5.66737 43.3442 7.98883C45.6656 10.3103 47.5071 13.0663 48.7635 16.0994C50.0199 19.1326 50.6665 22.3835 50.6665 25.6665C50.6665 28.9495 50.0199 32.2004 48.7635 35.2336C47.5071 38.2667 45.6656 41.0227 43.3442 43.3442C41.0227 45.6656 38.2667 47.5071 35.2336 48.7635C32.2004 50.0199 28.9495 50.6665 25.6665 50.6665C19.0361 50.6665 12.6772 48.0326 7.98883 43.3442C3.30043 38.6558 0.666504 32.2969 0.666504 25.6665C0.666504 19.0361 3.30043 12.6772 7.98883 7.98883C12.6772 3.30042 19.0361 0.666504 25.6665 0.666504Z"
    stroke="black" stroke-width="1.33333" stroke-linecap="round" stroke-linejoin="round" />
</svg>