<svg width="12" height="13" viewBox="0 0 12 13" fill="none" xmlns="http://www.w3.org/2000/svg">
<path d="M10.6665 12.0782L7.33317 8.27437M8.44428 5.10453C8.44428 5.68731 8.34369 6.26438 8.14826 6.8028C7.95282 7.34121 7.66637 7.83043 7.30525 8.24252C6.94414 8.6546 6.51543 8.98149 6.04361 9.20451C5.57179 9.42753 5.06609 9.54231 4.55539 9.54231C4.0447 9.54231 3.539 9.42753 3.06718 9.20451C2.59536 8.98149 2.16665 8.6546 1.80553 8.24252C1.44442 7.83043 1.15796 7.34121 0.962528 6.8028C0.767093 6.26438 0.666504 5.68731 0.666504 5.10453C0.666504 3.92756 1.07622 2.79879 1.80553 1.96654C2.53484 1.1343 3.524 0.666748 4.55539 0.666748C5.58679 0.666748 6.57594 1.1343 7.30525 1.96654C8.03456 2.79879 8.44428 3.92756 8.44428 5.10453Z" stroke="white" stroke-width="1.33333" stroke-linecap="round" stroke-linejoin="round"/>
</svg>
